<svg xmlns="http://www.w3.org/2000/svg" xmlns:xlink="http://www.w3.org/1999/xlink" width="250" zoomAndPan="magnify" viewBox="0 0 187.5 187.499992" height="250" preserveAspectRatio="xMidYMid meet" version="1.0"><defs><clipPath id="fc51451f17"><path d="M 98 59 L 168.386719 59 L 168.386719 116 L 98 116 Z M 98 59 " clip-rule="nonzero"/></clipPath><clipPath id="436e2c4943"><path d="M 0 49.261719 L 76 49.261719 L 76 126 L 0 126 Z M 0 49.261719 " clip-rule="nonzero"/></clipPath><clipPath id="df19e90542"><path d="M 27.921875 50.417969 L 76.542969 50.417969 L 76.542969 125.21875 L 27.921875 125.21875 Z M 27.921875 50.417969 " clip-rule="nonzero"/></clipPath></defs><path fill="#ffffff" d="M 0 0 L 187 0 L 187 187 L 0 187 Z M 0 0 " fill-opacity="1" fill-rule="nonzero"/><path fill="#f03c2e" d="M 0 0 L 187 0 L 187 187 L 0 187 Z M 0 0 " fill-opacity="1" fill-rule="nonzero"/><g clip-path="url(#fc51451f17)"><path fill="#362701" d="M 112.6875 78.960938 C 109.640625 78.960938 107.367188 80.453125 107.367188 84.050781 C 107.367188 86.738281 108.863281 88.644531 112.519531 88.644531 C 115.621094 88.644531 117.730469 86.820312 117.730469 83.941406 C 117.730469 80.671875 115.847656 78.960938 112.6875 78.960938 Z M 106.59375 104.363281 C 105.871094 105.25 105.152344 106.191406 105.152344 107.273438 C 105.152344 109.484375 107.976562 110.152344 111.855469 110.152344 C 115.070312 110.152344 119.449219 109.929688 119.449219 106.941406 C 119.449219 105.167969 117.339844 105.058594 114.679688 104.890625 L 106.613281 104.339844 Z M 122.996094 79.125 C 123.992188 80.398438 125.046875 82.167969 125.046875 84.714844 C 125.046875 90.855469 120.207031 94.453125 113.242188 94.453125 C 111.449219 94.453125 109.882812 94.230469 108.863281 93.957031 L 107.035156 96.867188 L 112.46875 97.195312 C 122.058594 97.804688 127.703125 98.085938 127.703125 105.441406 C 127.703125 111.808594 122.113281 115.398438 112.46875 115.398438 C 102.4375 115.398438 98.617188 112.851562 98.617188 108.460938 C 98.617188 105.972656 99.726562 104.644531 101.664062 102.816406 C 99.835938 102.046875 99.226562 100.660156 99.226562 99.167969 C 99.226562 97.949219 99.835938 96.839844 100.832031 95.808594 L 104.265625 92.488281 C 101.550781 91.164062 99.5 88.28125 99.5 84.207031 C 99.5 77.84375 103.710938 73.472656 112.191406 73.472656 C 114.574219 73.472656 116.015625 73.695312 117.292969 74.027344 L 128.097656 74.027344 L 128.097656 78.730469 L 122.996094 79.117188 M 137.84375 69.066406 C 134.707031 69.066406 132.855469 67.238281 132.855469 64.082031 C 132.855469 60.921875 134.6875 59.210938 137.84375 59.210938 C 141.058594 59.210938 142.886719 60.929688 142.886719 64.082031 C 142.886719 67.230469 141.058594 69.066406 137.847656 69.066406 Z M 130.671875 102.328125 L 130.671875 97.957031 L 133.503906 97.570312 C 134.277344 97.460938 134.390625 97.292969 134.390625 96.460938 L 134.390625 80.195312 C 134.390625 79.585938 134.222656 79.199219 133.667969 79.03125 L 130.671875 77.980469 L 131.28125 73.5 L 142.757812 73.5 L 142.757812 96.46875 C 142.757812 97.355469 142.808594 97.464844 143.644531 97.582031 L 146.46875 97.96875 L 146.46875 102.332031 L 130.667969 102.332031 M 168.402344 100.183594 C 166.019531 101.347656 162.527344 102.421875 159.367188 102.421875 C 152.773438 102.421875 150.28125 99.769531 150.28125 93.511719 L 150.28125 79.007812 C 150.28125 78.679688 150.28125 78.453125 149.832031 78.453125 L 145.976562 78.453125 L 145.976562 73.53125 C 150.855469 72.992188 152.796875 70.539062 153.40625 64.507812 L 158.667969 64.507812 L 158.667969 72.367188 C 158.667969 72.75 158.667969 72.921875 159.113281 72.921875 L 166.929688 72.921875 L 166.929688 78.453125 L 158.648438 78.453125 L 158.648438 91.65625 C 158.648438 94.925781 159.425781 96.195312 162.414062 96.195312 C 163.964844 96.195312 165.550781 95.808594 166.902344 95.3125 L 168.398438 100.179688 " fill-opacity="1" fill-rule="nonzero"/></g><g clip-path="url(#436e2c4943)"><path fill="#f03c2e" d="M 74.394531 84.292969 L 41.175781 51.121094 C 39.261719 49.210938 36.160156 49.210938 34.246094 51.121094 L 27.347656 58.007812 L 36.097656 66.746094 C 38.132812 66.058594 40.460938 66.523438 42.078125 68.136719 C 42.464844 68.523438 42.789062 68.953125 43.054688 69.433594 C 43.320312 69.910156 43.511719 70.414062 43.636719 70.945312 C 43.757812 71.476562 43.804688 72.015625 43.773438 72.5625 C 43.746094 73.105469 43.640625 73.636719 43.460938 74.152344 L 51.894531 82.574219 C 53.910156 81.871094 56.285156 82.328125 57.917969 83.953125 C 58.28125 84.3125 58.589844 84.714844 58.847656 85.15625 C 59.101562 85.601562 59.296875 86.070312 59.429688 86.5625 C 59.5625 87.054688 59.628906 87.558594 59.628906 88.070312 C 59.628906 88.582031 59.5625 89.085938 59.429688 89.578125 C 59.296875 90.070312 59.101562 90.539062 58.847656 90.984375 C 58.589844 91.425781 58.28125 91.828125 57.917969 92.1875 C 57.558594 92.550781 57.152344 92.859375 56.710938 93.113281 C 56.265625 93.367188 55.796875 93.5625 55.300781 93.695312 C 54.808594 93.824219 54.304688 93.890625 53.792969 93.890625 C 53.28125 93.890625 52.777344 93.824219 52.285156 93.695312 C 51.789062 93.5625 51.320312 93.367188 50.878906 93.113281 C 50.4375 92.855469 50.035156 92.546875 49.671875 92.1875 C 47.960938 90.472656 47.539062 87.960938 48.402344 85.855469 L 40.5625 78.019531 L 40.5625 98.691406 C 41.097656 98.964844 41.640625 99.328125 42.101562 99.792969 C 44.378906 102.066406 44.378906 105.75 42.101562 108.027344 C 41.832031 108.296875 41.539062 108.539062 41.21875 108.75 C 40.902344 108.964844 40.566406 109.144531 40.210938 109.289062 C 39.859375 109.4375 39.492188 109.546875 39.117188 109.621094 C 38.742188 109.695312 38.363281 109.734375 37.980469 109.734375 C 37.597656 109.734375 37.21875 109.695312 36.84375 109.621094 C 36.46875 109.546875 36.101562 109.4375 35.75 109.289062 C 35.394531 109.144531 35.058594 108.964844 34.742188 108.75 C 34.421875 108.539062 34.128906 108.296875 33.859375 108.027344 C 31.582031 105.746094 31.582031 102.066406 33.859375 99.792969 C 34.410156 99.242188 35.046875 98.816406 35.769531 98.519531 L 35.769531 77.664062 C 35.09375 77.375 34.421875 76.957031 33.859375 76.410156 C 33.449219 76 33.109375 75.542969 32.835938 75.03125 C 32.5625 74.523438 32.371094 73.984375 32.261719 73.417969 C 32.148438 72.851562 32.121094 72.28125 32.179688 71.707031 C 32.238281 71.132812 32.378906 70.578125 32.605469 70.046875 L 23.976562 61.429688 L 1.183594 84.136719 C 0.957031 84.367188 0.753906 84.613281 0.574219 84.878906 C 0.398438 85.148438 0.246094 85.429688 0.125 85.726562 C 0 86.023438 -0.0898438 86.328125 -0.152344 86.644531 C -0.214844 86.960938 -0.246094 87.277344 -0.246094 87.597656 C -0.246094 87.921875 -0.214844 88.238281 -0.152344 88.554688 C -0.0898438 88.867188 0 89.175781 0.125 89.472656 C 0.246094 89.769531 0.398438 90.050781 0.574219 90.316406 C 0.753906 90.585938 0.957031 90.832031 1.183594 91.058594 L 34.40625 124.234375 C 36.316406 126.144531 39.421875 126.144531 41.335938 124.234375 L 74.394531 91.214844 C 74.625 90.988281 74.824219 90.742188 75.003906 90.472656 C 75.183594 90.207031 75.332031 89.921875 75.457031 89.625 C 75.578125 89.328125 75.671875 89.023438 75.734375 88.710938 C 75.796875 88.394531 75.828125 88.074219 75.828125 87.753906 C 75.828125 87.433594 75.796875 87.117188 75.734375 86.800781 C 75.671875 86.484375 75.578125 86.179688 75.457031 85.882812 C 75.332031 85.585938 75.183594 85.304688 75.003906 85.035156 C 74.824219 84.769531 74.625 84.523438 74.394531 84.292969 " fill-opacity="1" fill-rule="nonzero"/></g><g clip-path="url(#df19e90542)"><path fill="#ffffff" d="M 35.414062 50.410156 C 34.59375 50.414062 33.792969 50.546875 33.011719 50.8125 C 32.234375 51.074219 31.519531 51.457031 30.867188 51.960938 C 30.214844 52.460938 29.660156 53.054688 29.203125 53.738281 C 28.746094 54.421875 28.414062 55.160156 28.199219 55.953125 C 27.988281 56.75 27.90625 57.554688 27.960938 58.375 C 28.015625 59.195312 28.199219 59.988281 28.511719 60.746094 C 28.824219 61.507812 29.253906 62.195312 29.796875 62.816406 C 30.335938 63.433594 30.964844 63.949219 31.675781 64.363281 L 31.675781 111.253906 C 30.964844 111.667969 30.335938 112.183594 29.796875 112.800781 C 29.253906 113.421875 28.824219 114.109375 28.511719 114.871094 C 28.199219 115.628906 28.015625 116.421875 27.960938 117.242188 C 27.90625 118.0625 27.988281 118.867188 28.199219 119.664062 C 28.414062 120.457031 28.746094 121.195312 29.203125 121.878906 C 29.660156 122.5625 30.214844 123.15625 30.867188 123.65625 C 31.519531 124.160156 32.234375 124.542969 33.011719 124.804688 C 33.792969 125.070312 34.59375 125.203125 35.414062 125.207031 C 36.238281 125.203125 37.035156 125.070312 37.816406 124.804688 C 38.59375 124.542969 39.308594 124.160156 39.960938 123.65625 C 40.613281 123.15625 41.167969 122.5625 41.625 121.878906 C 42.082031 121.195312 42.414062 120.457031 42.628906 119.664062 C 42.839844 118.867188 42.921875 118.0625 42.867188 117.242188 C 42.8125 116.421875 42.628906 115.628906 42.316406 114.871094 C 42.003906 114.109375 41.574219 113.421875 41.035156 112.800781 C 40.492188 112.183594 39.867188 111.667969 39.152344 111.253906 L 39.152344 91.453125 C 42.636719 95.09375 46.984375 97.949219 52.167969 99.101562 L 61.941406 101.277344 C 62.183594 102.035156 62.53125 102.738281 62.996094 103.382812 C 63.457031 104.03125 64.011719 104.589844 64.652344 105.058594 C 65.292969 105.527344 65.992188 105.886719 66.746094 106.136719 C 67.5 106.382812 68.277344 106.507812 69.070312 106.507812 C 69.5625 106.507812 70.050781 106.460938 70.53125 106.363281 C 71.011719 106.269531 71.480469 106.125 71.933594 105.9375 C 72.386719 105.75 72.820312 105.519531 73.226562 105.246094 C 73.636719 104.972656 74.011719 104.664062 74.359375 104.316406 C 74.707031 103.96875 75.019531 103.589844 75.289062 103.183594 C 75.5625 102.773438 75.792969 102.34375 75.980469 101.890625 C 76.167969 101.4375 76.3125 100.96875 76.40625 100.488281 C 76.503906 100.003906 76.550781 99.519531 76.550781 99.027344 C 76.550781 98.535156 76.503906 98.050781 76.40625 97.570312 C 76.3125 97.085938 76.167969 96.621094 75.980469 96.164062 C 75.792969 95.710938 75.5625 95.28125 75.289062 94.871094 C 75.019531 94.464844 74.707031 94.085938 74.359375 93.738281 C 74.011719 93.390625 73.636719 93.082031 73.226562 92.808594 C 72.820312 92.535156 72.386719 92.304688 71.933594 92.117188 C 71.480469 91.929688 71.011719 91.789062 70.53125 91.691406 C 70.050781 91.597656 69.5625 91.546875 69.070312 91.546875 C 68.023438 91.550781 67.023438 91.761719 66.0625 92.183594 C 65.105469 92.605469 64.273438 93.203125 63.5625 93.972656 L 53.792969 91.804688 C 45.214844 89.898438 39.152344 82.335938 39.152344 73.550781 L 39.152344 64.363281 C 39.867188 63.949219 40.492188 63.433594 41.035156 62.816406 C 41.574219 62.195312 42.003906 61.507812 42.316406 60.746094 C 42.628906 59.988281 42.8125 59.195312 42.867188 58.375 C 42.921875 57.554688 42.839844 56.75 42.628906 55.953125 C 42.414062 55.160156 42.082031 54.421875 41.625 53.738281 C 41.167969 53.054688 40.613281 52.460938 39.960938 51.960938 C 39.308594 51.457031 38.59375 51.074219 37.816406 50.8125 C 37.035156 50.546875 36.238281 50.414062 35.414062 50.410156 Z M 35.414062 50.410156 " fill-opacity="1" fill-rule="nonzero"/></g></svg>