<svg xmlns="http://www.w3.org/2000/svg" xmlns:xlink="http://www.w3.org/1999/xlink" width="250" zoomAndPan="magnify" viewBox="0 0 187.5 187.499992" height="250" preserveAspectRatio="xMidYMid meet" version="1.0"><defs><clipPath id="adda7ad106"><path d="M 10 12.519531 L 181 12.519531 L 181 174.839844 L 10 174.839844 Z M 10 12.519531 " clip-rule="nonzero"/></clipPath></defs><path fill="#ffffff" d="M 0 0 L 187 0 L 187 187 L 0 187 Z M 0 0 " fill-opacity="1" fill-rule="nonzero"/><path fill="#dec9ff" d="M 0 0 L 187 0 L 187 187 L 0 187 Z M 0 0 " fill-opacity="1" fill-rule="nonzero"/><g clip-path="url(#adda7ad106)"><path fill="#764abc" d="M 128.195312 125.894531 C 134.492188 125.246094 139.269531 119.804688 139.046875 113.277344 C 138.828125 106.746094 133.40625 101.527344 126.894531 101.527344 L 126.457031 101.527344 C 119.734375 101.742188 114.523438 107.398438 114.738281 114.144531 C 114.957031 117.414062 116.257812 120.238281 118.214844 122.195312 C 110.832031 136.777344 99.546875 147.445312 82.621094 156.363281 C 71.117188 162.453125 59.179688 164.632812 47.242188 163.109375 C 37.476562 161.804688 29.878906 157.449219 25.105469 150.269531 C 18.160156 139.609375 17.507812 128.074219 23.367188 116.539062 C 27.492188 108.269531 34.003906 102.175781 38.125 99.128906 C 37.257812 96.304688 35.957031 91.515625 35.304688 88.035156 C 3.835938 110.878906 7.089844 141.78125 16.640625 156.363281 C 23.800781 167.242188 38.34375 173.988281 54.402344 173.988281 C 58.746094 173.988281 63.085938 173.554688 67.425781 172.46875 C 95.203125 167.03125 116.257812 150.492188 128.195312 125.894531 Z M 166.394531 98.917969 C 149.902344 79.546875 125.589844 68.882812 97.808594 68.882812 L 94.339844 68.882812 C 92.386719 64.964844 88.261719 62.355469 83.707031 62.355469 L 83.273438 62.355469 C 76.542969 62.570312 71.332031 68.230469 71.550781 74.976562 C 71.765625 81.503906 77.191406 86.726562 83.707031 86.726562 L 84.136719 86.726562 C 88.914062 86.511719 93.039062 83.464844 94.769531 79.332031 L 98.683594 79.332031 C 115.171875 79.332031 130.800781 84.113281 144.910156 93.472656 C 155.757812 100.652344 163.570312 110.011719 167.914062 121.328125 C 171.605469 130.464844 171.386719 139.390625 167.480469 147.003906 C 161.398438 158.539062 151.199219 164.851562 137.742188 164.851562 C 129.0625 164.851562 120.8125 162.238281 116.476562 160.28125 C 114.089844 162.453125 109.746094 165.941406 106.710938 168.113281 C 116.042969 172.46875 125.589844 174.859375 134.703125 174.859375 C 155.542969 174.859375 170.953125 163.328125 176.808594 151.792969 C 183.105469 139.175781 182.671875 117.414062 166.394531 98.917969 Z M 56.136719 129.597656 C 56.355469 136.121094 61.78125 141.347656 68.289062 141.347656 L 68.726562 141.347656 C 75.453125 141.132812 80.664062 135.472656 80.445312 128.726562 C 80.230469 122.195312 74.800781 116.976562 68.289062 116.976562 L 67.855469 116.976562 C 67.421875 116.976562 66.773438 116.976562 66.335938 117.191406 C 57.4375 102.398438 53.75 86.292969 55.050781 68.882812 C 55.917969 55.828125 60.261719 44.511719 67.855469 35.152344 C 74.152344 27.101562 86.308594 23.183594 94.554688 22.964844 C 117.558594 22.53125 127.324219 51.257812 127.980469 62.789062 C 130.796875 63.441406 135.574219 64.964844 138.824219 66.054688 C 136.21875 30.800781 114.519531 12.519531 93.683594 12.519531 C 74.152344 12.519531 56.136719 26.664062 48.976562 47.558594 C 38.992188 75.410156 45.503906 102.175781 57.65625 123.285156 C 56.570312 124.808594 55.917969 127.207031 56.136719 129.597656 Z M 56.136719 129.597656 " fill-opacity="1" fill-rule="nonzero"/></g></svg>