<svg xmlns="http://www.w3.org/2000/svg" xmlns:xlink="http://www.w3.org/1999/xlink" width="250" zoomAndPan="magnify" viewBox="0 0 187.5 187.499992" height="250" preserveAspectRatio="xMidYMid meet" version="1.0"><defs><clipPath id="fe9a156a2c"><path d="M 10.261719 40.832031 L 177 40.832031 L 177 141.0625 L 10.261719 141.0625 Z M 10.261719 40.832031 " clip-rule="nonzero"/></clipPath></defs><path fill="#ffffff" d="M 0 0 L 187 0 L 187 187 L 0 187 Z M 0 0 " fill-opacity="1" fill-rule="nonzero"/><path fill="#333333" d="M 0 0 L 187 0 L 187 187 L 0 187 Z M 0 0 " fill-opacity="1" fill-rule="nonzero"/><g clip-path="url(#fe9a156a2c)"><path fill="#ffffff" d="M 49.558594 67.011719 L 80.941406 67.011719 L 80.941406 69.507812 L 52.433594 69.507812 L 52.433594 88.28125 L 79.242188 88.28125 L 79.242188 90.777344 L 52.433594 90.777344 L 52.433594 111.390625 L 81.269531 111.390625 L 81.269531 113.886719 L 49.558594 113.886719 Z M 83.753906 67.011719 L 87.089844 67.011719 L 101.867188 87.625 L 116.972656 67.011719 L 137.515625 40.832031 L 103.761719 89.792969 L 121.15625 113.886719 L 117.6875 113.886719 L 101.867188 91.957031 L 85.976562 113.886719 L 82.578125 113.886719 L 100.097656 89.792969 Z M 122.398438 69.507812 L 122.398438 67.011719 L 158.167969 67.011719 L 158.167969 69.507812 L 141.6875 69.507812 L 141.6875 113.886719 L 138.8125 113.886719 L 138.8125 69.507812 Z M 10.292969 67.011719 L 13.886719 67.011719 L 63.480469 141.21875 L 42.988281 113.886719 L 13.300781 70.558594 L 13.171875 113.886719 L 10.292969 113.886719 Z M 157.875 110.640625 C 157.289062 110.640625 156.847656 110.179688 156.847656 109.59375 C 156.847656 109.003906 157.289062 108.550781 157.875 108.550781 C 158.46875 108.550781 158.902344 109.003906 158.902344 109.59375 C 158.902344 110.179688 158.46875 110.640625 157.875 110.640625 Z M 160.703125 107.890625 L 162.242188 107.890625 C 162.261719 108.726562 162.871094 109.285156 163.765625 109.285156 C 164.765625 109.285156 165.332031 108.683594 165.332031 107.554688 L 165.332031 100.410156 L 166.902344 100.410156 L 166.902344 107.5625 C 166.902344 109.59375 165.726562 110.761719 163.78125 110.761719 C 161.957031 110.761719 160.703125 109.628906 160.703125 107.890625 Z M 168.953125 107.800781 L 170.507812 107.800781 C 170.636719 108.761719 171.578125 109.367188 172.929688 109.367188 C 174.1875 109.367188 175.109375 108.71875 175.109375 107.820312 C 175.109375 107.050781 174.519531 106.585938 173.183594 106.273438 L 171.886719 105.957031 C 170.058594 105.53125 169.226562 104.648438 169.226562 103.160156 C 169.226562 101.359375 170.695312 100.164062 172.898438 100.164062 C 174.949219 100.164062 176.445312 101.359375 176.535156 103.0625 L 175.011719 103.0625 C 174.867188 102.132812 174.054688 101.550781 172.875 101.550781 C 171.636719 101.550781 170.8125 102.148438 170.8125 103.058594 C 170.8125 103.777344 171.34375 104.191406 172.660156 104.5 L 173.773438 104.773438 C 175.84375 105.257812 176.699219 106.097656 176.699219 107.617188 C 176.699219 109.550781 175.199219 110.761719 172.808594 110.761719 C 170.570312 110.761719 169.0625 109.609375 168.953125 107.800781 Z M 168.953125 107.800781 " fill-opacity="1" fill-rule="nonzero"/></g></svg>