<svg xmlns="http://www.w3.org/2000/svg" xmlns:xlink="http://www.w3.org/1999/xlink" width="250" zoomAndPan="magnify" viewBox="0 0 187.5 187.499992" height="250" preserveAspectRatio="xMidYMid meet" version="1.0"><defs><clipPath id="db78536a80"><path d="M 3.140625 13 L 184 13 L 184 174 L 3.140625 174 Z M 3.140625 13 " clip-rule="nonzero"/></clipPath></defs><path fill="#ffffff" d="M 0 0 L 187 0 L 187 187 L 0 187 Z M 0 0 " fill-opacity="1" fill-rule="nonzero"/><path fill="#00d8ff" d="M 0 0 L 187 0 L 187 187 L 0 187 Z M 0 0 " fill-opacity="1" fill-rule="nonzero"/><g clip-path="url(#db78536a80)"><path fill="#ffffff" d="M 151.601562 65.265625 C 149.734375 64.621094 147.796875 64.011719 145.796875 63.433594 C 146.128906 62.097656 146.429688 60.773438 146.699219 59.476562 C 151.085938 38.144531 148.21875 20.957031 138.40625 15.300781 C 128.996094 9.875 113.609375 15.53125 98.070312 29.054688 C 96.578125 30.355469 95.074219 31.730469 93.582031 33.175781 C 92.582031 32.21875 91.589844 31.296875 90.597656 30.414062 C 74.308594 15.957031 57.984375 9.863281 48.183594 15.535156 C 38.78125 20.976562 36 37.132812 39.957031 57.347656 C 40.335938 59.300781 40.785156 61.296875 41.289062 63.324219 C 38.980469 63.980469 36.75 64.679688 34.613281 65.421875 C 15.519531 72.078125 3.328125 82.511719 3.328125 93.335938 C 3.328125 104.507812 16.417969 115.722656 36.304688 122.519531 C 37.875 123.054688 39.503906 123.5625 41.179688 124.042969 C 40.636719 126.230469 40.164062 128.378906 39.765625 130.480469 C 35.992188 150.34375 38.9375 166.117188 48.3125 171.523438 C 57.996094 177.109375 74.246094 171.367188 90.066406 157.539062 C 91.320312 156.445312 92.574219 155.285156 93.828125 154.070312 C 95.464844 155.636719 97.089844 157.121094 98.703125 158.515625 C 114.03125 171.703125 129.171875 177.03125 138.535156 171.613281 C 148.207031 166.011719 151.355469 149.0625 147.269531 128.453125 C 146.960938 126.875 146.59375 125.265625 146.191406 123.632812 C 147.332031 123.292969 148.453125 122.941406 149.542969 122.582031 C 170.21875 115.730469 183.667969 104.660156 183.667969 93.335938 C 183.667969 82.472656 171.078125 71.96875 151.601562 65.265625 Z M 147.121094 115.269531 C 146.136719 115.59375 145.121094 115.910156 144.09375 116.214844 C 141.808594 108.996094 138.730469 101.308594 134.957031 93.371094 C 138.554688 85.621094 141.515625 78.035156 143.734375 70.859375 C 145.578125 71.390625 147.367188 71.953125 149.09375 72.546875 C 165.78125 78.292969 175.960938 86.789062 175.960938 93.335938 C 175.960938 100.300781 164.972656 109.351562 147.121094 115.269531 Z M 139.710938 129.945312 C 141.519531 139.058594 141.773438 147.300781 140.578125 153.75 C 139.507812 159.539062 137.34375 163.398438 134.671875 164.941406 C 128.988281 168.230469 116.835938 163.957031 103.734375 152.675781 C 102.226562 151.382812 100.710938 150 99.195312 148.542969 C 104.277344 142.984375 109.355469 136.523438 114.316406 129.347656 C 123.027344 128.578125 131.265625 127.308594 138.738281 125.585938 C 139.105469 127.070312 139.429688 128.523438 139.710938 129.945312 Z M 64.8125 164.371094 C 59.261719 166.335938 54.835938 166.394531 52.164062 164.851562 C 46.476562 161.566406 44.109375 148.902344 47.335938 131.917969 C 47.707031 129.972656 48.144531 127.972656 48.652344 125.929688 C 56.039062 127.5625 64.214844 128.738281 72.957031 129.445312 C 77.945312 136.46875 83.171875 142.921875 88.4375 148.570312 C 87.289062 149.683594 86.140625 150.738281 85 151.734375 C 78.003906 157.855469 70.992188 162.195312 64.8125 164.371094 Z M 38.800781 115.230469 C 30.003906 112.21875 22.742188 108.316406 17.765625 104.050781 C 13.292969 100.222656 11.035156 96.417969 11.035156 93.335938 C 11.035156 86.769531 20.824219 78.390625 37.152344 72.695312 C 39.132812 72.007812 41.207031 71.355469 43.359375 70.742188 C 45.617188 78.085938 48.578125 85.761719 52.148438 93.515625 C 48.53125 101.394531 45.527344 109.191406 43.25 116.625 C 41.714844 116.179688 40.230469 115.714844 38.800781 115.230469 Z M 47.519531 55.871094 C 44.128906 38.546875 46.378906 25.484375 52.046875 22.203125 C 58.078125 18.710938 71.417969 23.691406 85.476562 36.175781 C 86.378906 36.976562 87.28125 37.808594 88.1875 38.675781 C 82.949219 44.300781 77.769531 50.707031 72.824219 57.6875 C 64.34375 58.472656 56.222656 59.734375 48.757812 61.425781 C 48.289062 59.539062 47.875 57.683594 47.519531 55.871094 Z M 125.304688 75.078125 C 123.523438 71.996094 121.691406 68.988281 119.824219 66.058594 C 125.578125 66.785156 131.089844 67.753906 136.265625 68.933594 C 134.714844 73.914062 132.777344 79.125 130.496094 84.464844 C 128.863281 81.355469 127.128906 78.226562 125.304688 75.078125 Z M 93.582031 44.179688 C 97.140625 48.03125 100.699219 52.328125 104.199219 56.992188 C 100.671875 56.824219 97.097656 56.738281 93.5 56.738281 C 89.933594 56.738281 86.390625 56.824219 82.882812 56.988281 C 86.382812 52.367188 89.976562 48.074219 93.582031 44.179688 Z M 61.660156 75.132812 C 59.875 78.222656 58.179688 81.335938 56.566406 84.457031 C 54.324219 79.136719 52.40625 73.90625 50.835938 68.851562 C 55.984375 67.699219 61.46875 66.757812 67.1875 66.046875 C 65.292969 69 63.445312 72.03125 61.660156 75.132812 Z M 67.351562 121.167969 C 61.445312 120.511719 55.875 119.617188 50.730469 118.496094 C 52.324219 113.355469 54.285156 108.015625 56.578125 102.578125 C 58.191406 105.699219 59.894531 108.8125 61.6875 111.910156 L 61.691406 111.910156 C 63.515625 115.066406 65.410156 118.152344 67.351562 121.167969 Z M 93.792969 143.027344 C 90.144531 139.089844 86.503906 134.726562 82.945312 130.042969 C 86.398438 130.175781 89.921875 130.246094 93.5 130.246094 C 97.175781 130.246094 100.8125 130.164062 104.382812 130.007812 C 100.875 134.777344 97.324219 139.144531 93.792969 143.027344 Z M 130.566406 102.300781 C 132.976562 107.796875 135.011719 113.109375 136.625 118.167969 C 131.398438 119.355469 125.75 120.316406 119.804688 121.035156 C 121.675781 118.066406 123.523438 115.003906 125.339844 111.855469 C 127.179688 108.671875 128.917969 105.480469 130.566406 102.300781 Z M 118.660156 108.007812 C 115.84375 112.898438 112.949219 117.558594 110.011719 121.964844 C 104.664062 122.34375 99.132812 122.539062 93.5 122.539062 C 87.882812 122.539062 82.425781 122.371094 77.167969 122.027344 C 74.113281 117.566406 71.15625 112.890625 68.355469 108.050781 C 65.5625 103.226562 62.992188 98.355469 60.660156 93.515625 C 62.992188 88.671875 65.554688 83.796875 68.332031 78.980469 C 71.117188 74.152344 74.050781 69.492188 77.078125 65.058594 C 82.4375 64.652344 87.941406 64.441406 93.5 64.441406 C 99.085938 64.441406 104.585938 64.65625 109.949219 65.0625 C 112.933594 69.464844 115.84375 74.109375 118.640625 78.9375 C 121.464844 83.824219 124.066406 88.664062 126.410156 93.410156 C 124.070312 98.238281 121.480469 103.125 118.660156 108.007812 Z M 134.554688 21.972656 C 140.597656 25.457031 142.945312 39.5 139.148438 57.917969 C 138.90625 59.09375 138.632812 60.289062 138.335938 61.503906 C 130.855469 59.777344 122.734375 58.492188 114.230469 57.695312 C 109.273438 50.636719 104.136719 44.222656 98.980469 38.667969 C 100.367188 37.335938 101.753906 36.0625 103.128906 34.863281 C 116.441406 23.277344 128.890625 18.703125 134.554688 21.972656 Z M 93.5 77.226562 C 102.390625 77.226562 109.601562 84.433594 109.601562 93.332031 C 109.601562 102.222656 102.390625 109.4375 93.5 109.4375 C 84.609375 109.4375 77.394531 102.222656 77.394531 93.332031 C 77.394531 84.433594 84.609375 77.226562 93.5 77.226562 Z M 93.5 77.226562 " fill-opacity="1" fill-rule="nonzero"/></g></svg>